<?xml version="1.0" standalone="no"?><!DOCTYPE svg PUBLIC "-//W3C//DTD SVG 1.1//EN" "http://www.w3.org/Graphics/SVG/1.1/DTD/svg11.dtd"><svg class="icon" width="200px" height="200.00px" viewBox="0 0 1024 1024" version="1.1" xmlns="http://www.w3.org/2000/svg"><path fill="#f4ea2a" d="M488.727273 540.858182a69.818182 69.818182 0 1 0 0-139.636364 69.818182 69.818182 0 0 0 0 139.636364z"  /><path fill="#f4ea2a" d="M436.270545 948.922182C216.482909 779.636364 104.727273 629.76 104.727273 494.778182c0-208.942545 170.775273-378.181818 381.207272-378.181818 210.525091 0 381.253818 169.239273 381.253819 378.181818 0 131.537455-106.123636 277.224727-314.740364 441.064727l-16.663273 12.986182a81.547636 81.547636 0 0 1-93.509818 4.282182l-6.004364-4.189091z m56.785455-55.342546l16.384-12.706909c193.163636-151.738182 287.930182-281.832727 287.930182-386.094545 0-170.216727-139.357091-308.363636-311.389091-308.363637-172.078545 0-311.435636 138.146909-311.435636 308.363637 0 107.240727 100.212364 241.617455 304.314181 398.801454 4.189091 3.258182 10.007273 3.258182 14.196364 0z"  /></svg>