<?xml version="1.0" standalone="no"?><!DOCTYPE svg PUBLIC "-//W3C//DTD SVG 1.1//EN" "http://www.w3.org/Graphics/SVG/1.1/DTD/svg11.dtd"><svg class="icon" width="200px" height="200.00px" viewBox="0 0 1024 1024" version="1.1" xmlns="http://www.w3.org/2000/svg"><path fill="#f4ea2a" d="M510.995 64.231c-246.742 0-446.783 200.039-446.783 446.783 0 246.742 200.041 446.783 446.783 446.783s446.783-200.041 446.783-446.783c0-246.744-200.041-446.783-446.783-446.783zM303.556 301.864c6.596-5.097 15.671-4.852 21.989 0L542.2 466.72c2.059 1.571 3.351 3.176 4.747 4.747 10.751 9.808 17.662 23.805 17.662 39.547 0 29.634-24.015 53.614-53.614 53.614-16.894 0-31.763-7.958-41.606-20.175-0.768-0.838-1.746-1.571-2.443-2.443L300.274 327.134c-6.074-7.888-4.607-19.197 3.282-25.27z m207.439 619.649c-227.003 0-411.04-184.035-411.04-411.04 0-113.51 46.004-216.27 120.387-290.654l25.411 25.411c-67.959 67.961-110.055 161.785-110.055 265.242 0 206.934 168.364 375.298 375.298 375.298s375.298-168.364 375.298-375.298c0-200.913-158.817-364.966-357.426-374.39v141.854h-35.743V99.886c5.933-0.261 11.868-0.454 17.871-0.454 227.003 0 411.04 184.037 411.04 411.04-0.001 227.006-184.038 411.041-411.041 411.041z" /></svg>